<?xml version="1.0" encoding="UTF-8"?>
<!-- Created with Inkscape (http://www.inkscape.org/) -->
<svg width="20.158mm" height="36.37mm" version="1.1" viewBox="0 0 20.158 36.37" xmlns="http://www.w3.org/2000/svg">
 <defs>
  <clipPath id="clipPath46621">
   <path transform="translate(-1166.3 -419.03)" d="m911.5 239.34h342.58v259.44h-342.58z"/>
  </clipPath>
  <clipPath id="clipPath46623">
   <path transform="translate(-1166.3 -419.03)" d="m911.5 239.34h342.58v259.44h-342.58z"/>
  </clipPath>
  <clipPath id="clipPath46625">
   <path transform="translate(-1144.1 -401.32)" d="m911.5 239.34h342.58v259.44h-342.58z"/>
  </clipPath>
  <clipPath id="clipPath46627">
   <path transform="translate(-1144.1 -401.32)" d="m911.5 239.34h342.58v259.44h-342.58z"/>
  </clipPath>
  <clipPath id="clipPath46629">
   <path transform="translate(-1110.3 -399.49)" d="m911.5 239.34h342.58v259.44h-342.58z"/>
  </clipPath>
  <clipPath id="clipPath46631">
   <path transform="translate(-1155.9 -422.86)" d="m911.5 239.34h342.58v259.44h-342.58z"/>
  </clipPath>
  <clipPath id="clipPath46633">
   <path transform="translate(-1121.1 -395.01)" d="m911.5 239.34h342.58v259.44h-342.58z"/>
  </clipPath>
  <clipPath id="clipPath46635">
   <path transform="translate(-1155.9 -422.86)" d="m911.5 239.34h342.58v259.44h-342.58z"/>
  </clipPath>
  <clipPath id="clipPath46639">
   <path transform="translate(-1160.6 -348.62)" d="m911.5 239.34h342.58v259.44h-342.58z"/>
  </clipPath>
  <clipPath id="clipPath46641">
   <path transform="translate(-1159.5 -349.71)" d="m911.5 239.34h342.58v259.44h-342.58z"/>
  </clipPath>
 </defs>
 <g transform="translate(-68.774 -28.431)">
  <path transform="matrix(.35278 0 0 -.35278 88.867 29.845)" d="m0 0c-6e-3 0.026-10.435 3.839-10.462 3.825 0 0-45.62-23.388-45.625-23.391-0.017-0.017-0.694-73.915-0.681-73.908 0 0 9.945-5.448 9.962-5.436 0 0 41.204 28.361 41.207 28.39 0 2e-3 5.601 70.512 5.599 70.52" clip-path="url(#clipPath46621)" fill="#bdbcbc"/>
  <path transform="matrix(.35278 0 0 -.35278 88.867 29.845)" d="m0 0c-6e-3 0.026-10.435 3.839-10.462 3.825 0 0-45.62-23.388-45.625-23.391-0.017-0.017-0.694-73.915-0.681-73.908 0 0 9.945-5.448 9.962-5.436 0 0 41.204 28.361 41.207 28.39 0 2e-3 5.601 70.512 5.599 70.52z" clip-path="url(#clipPath46623)" fill="none" stroke="#231f20" stroke-miterlimit="10" stroke-width=".373"/>
  <path transform="matrix(.35278 0 0 -.35278 81.062 36.092)" d="m0 0c0.201-0.394 0.814-0.937 0.814-0.937l-3.427-2.272s-0.795 0.992-0.932 1.29c-0.132 0.296-1.518 3.44-1.518 3.44l3.388 1.887s1.48-3.018 1.675-3.408" clip-path="url(#clipPath46625)" fill="#fff"/>
  <g fill="none" stroke="#231f20" stroke-width=".212">
   <path transform="matrix(.35278 0 0 -.35278 81.062 36.092)" d="m0 0c0.201-0.394 0.814-0.937 0.814-0.937l-3.427-2.272s-0.795 0.992-0.932 1.29c-0.132 0.296-1.518 3.44-1.518 3.44l3.388 1.887s1.48-3.018 1.675-3.408z" clip-path="url(#clipPath46627)" stroke-miterlimit="10"/>
   <g stroke-linecap="round" stroke-linejoin="round">
    <path transform="matrix(.35278 0 0 -.35278 69.115 36.737)" d="m0 0-0.791-73.738" clip-path="url(#clipPath46629)"/>
    <path transform="matrix(.35278 0 0 -.35278 85.204 28.492)" d="m0 0 10.322-3.751" clip-path="url(#clipPath46631)"/>
    <path transform="matrix(.35278 0 0 -.35278 72.945 38.317)" d="m0 0-10.856 4.479" clip-path="url(#clipPath46633)"/>
    <path transform="matrix(.35278 0 0 -.35278 85.204 28.492)" d="m0 0-45.607-23.371" clip-path="url(#clipPath46635)"/>
    <path transform="matrix(.35278 0 0 -.35278 86.867 54.682)" d="M 0,0 5.608,70.489 -39.464,46.389 -41.165,-28.315 0,0" clip-path="url(#clipPath46639)"/>
    <path transform="matrix(.35278 0 0 -.35278 86.484 54.3)" d="M 0,0 5.56,67.206 -36.681,44.559 -38.613,-26.734 0,0" clip-path="url(#clipPath46641)"/>
   </g>
  </g>
 </g>
</svg>
