<?xml version="1.0" encoding="UTF-8" standalone="no"?>
<!-- Created with Inkscape (http://www.inkscape.org/) -->

<svg
   width="41.423874mm"
   height="58.208336mm"
   viewBox="0 0 41.423874 58.208334"
   version="1.1"
   id="svg1"
   xmlns="http://www.w3.org/2000/svg"
   xmlns:svg="http://www.w3.org/2000/svg">
  <defs
     id="defs1">
    <clipPath
       clipPathUnits="userSpaceOnUse"
       id="clipPath22">
      <path
         d="M 81.951,79.036 H 336.472 V 454.345 H 81.951 Z"
         transform="translate(-308.82981,-396.77261)"
         id="path22" />
    </clipPath>
    <clipPath
       clipPathUnits="userSpaceOnUse"
       id="clipPath24">
      <path
         d="M 81.951,79.036 H 336.472 V 454.345 H 81.951 Z"
         transform="translate(-309.26611,-396.77261)"
         id="path24" />
    </clipPath>
    <clipPath
       clipPathUnits="userSpaceOnUse"
       id="clipPath26">
      <path
         d="M 81.951,79.036 H 336.472 V 454.345 H 81.951 Z"
         transform="translate(-310.55191,-396.63031)"
         id="path26" />
    </clipPath>
    <clipPath
       clipPathUnits="userSpaceOnUse"
       id="clipPath28">
      <path
         d="M 81.951,79.036 H 336.472 V 454.345 H 81.951 Z"
         transform="translate(-307.86991,-396.76821)"
         id="path28" />
    </clipPath>
    <clipPath
       clipPathUnits="userSpaceOnUse"
       id="clipPath30">
      <path
         d="M 81.951,79.036 H 336.472 V 454.345 H 81.951 Z"
         transform="translate(-311.36671,-396.77731)"
         id="path30" />
    </clipPath>
    <clipPath
       clipPathUnits="userSpaceOnUse"
       id="clipPath32">
      <path
         d="M 81.951,79.036 H 336.472 V 454.345 H 81.951 Z"
         transform="translate(-309.61951,-378.79071)"
         id="path32" />
    </clipPath>
    <clipPath
       clipPathUnits="userSpaceOnUse"
       id="clipPath34">
      <path
         d="M 81.951,79.036 H 336.472 V 454.345 H 81.951 Z"
         transform="translate(-309.47981,-381.46141)"
         id="path34" />
    </clipPath>
    <clipPath
       clipPathUnits="userSpaceOnUse"
       id="clipPath38">
      <path
         d="M 81.951,79.036 H 336.472 V 454.345 H 81.951 Z"
         transform="translate(-309.61811,-376.43161)"
         id="path38" />
    </clipPath>
    <clipPath
       clipPathUnits="userSpaceOnUse"
       id="clipPath40">
      <path
         d="M 81.951,79.036 H 336.472 V 454.345 H 81.951 Z"
         transform="translate(-302.50911,-405.33221)"
         id="path40" />
    </clipPath>
    <clipPath
       clipPathUnits="userSpaceOnUse"
       id="clipPath42">
      <path
         d="M 81.951,79.036 H 336.472 V 454.345 H 81.951 Z"
         transform="translate(-316.71611,-405.33081)"
         id="path42" />
    </clipPath>
    <clipPath
       clipPathUnits="userSpaceOnUse"
       id="clipPath44">
      <path
         d="M 81.951,79.036 H 336.472 V 454.345 H 81.951 Z"
         transform="translate(-314.25651,-388.54961)"
         id="path44" />
    </clipPath>
    <clipPath
       clipPathUnits="userSpaceOnUse"
       id="clipPath46">
      <path
         d="M 81.951,79.036 H 336.472 V 454.345 H 81.951 Z"
         transform="translate(-316.36051,-407.59901)"
         id="path46" />
    </clipPath>
    <clipPath
       clipPathUnits="userSpaceOnUse"
       id="clipPath48">
      <path
         d="M 81.951,79.036 H 336.472 V 454.345 H 81.951 Z"
         transform="translate(-317.19801,-409.08131)"
         id="path48" />
    </clipPath>
    <clipPath
       clipPathUnits="userSpaceOnUse"
       id="clipPath50">
      <path
         d="M 81.951,79.036 H 336.472 V 454.345 H 81.951 Z"
         transform="translate(-301.42331,-407.48771)"
         id="path50" />
    </clipPath>
    <clipPath
       clipPathUnits="userSpaceOnUse"
       id="clipPath52">
      <path
         d="M 81.951,79.036 H 336.472 V 454.345 H 81.951 Z"
         transform="translate(-304.33061,-407.49501)"
         id="path52" />
    </clipPath>
    <clipPath
       clipPathUnits="userSpaceOnUse"
       id="clipPath54">
      <path
         d="M 81.951,79.036 H 336.472 V 454.345 H 81.951 Z"
         transform="translate(-302.88061,-407.18501)"
         id="path54" />
    </clipPath>
    <clipPath
       clipPathUnits="userSpaceOnUse"
       id="clipPath56">
      <path
         d="M 81.951,79.036 H 336.472 V 454.345 H 81.951 Z"
         transform="translate(-301.45671,-407.96431)"
         id="path56" />
    </clipPath>
    <clipPath
       clipPathUnits="userSpaceOnUse"
       id="clipPath60">
      <path
         d="M 81.951,79.036 H 336.472 V 454.345 H 81.951 Z"
         transform="translate(-310.08721,-388.93051)"
         id="path60" />
    </clipPath>
    <clipPath
       clipPathUnits="userSpaceOnUse"
       id="clipPath62">
      <path
         d="M 81.951,79.036 H 336.472 V 454.345 H 81.951 Z"
         transform="translate(-319.60541,-388.81041)"
         id="path62" />
    </clipPath>
    <clipPath
       clipPathUnits="userSpaceOnUse"
       id="clipPath64">
      <path
         d="M 81.951,79.036 H 336.472 V 454.345 H 81.951 Z"
         id="path64" />
    </clipPath>
  </defs>
  <g
     id="layer1"
     transform="translate(-96.572844,-101.60008)">
    <path
       id="path21"
       d="m 0,0 c 0,-0.078 -0.064,-0.142 -0.142,-0.142 -0.079,0 -0.143,0.064 -0.143,0.142 0,0.078 0.064,0.142 0.143,0.142 C -0.064,0.142 0,0.078 0,0 m -0.496,0 c 0,-0.194 0.158,-0.354 0.354,-0.354 0.194,0 0.353,0.16 0.353,0.354 0,0.195 -0.159,0.354 -0.353,0.354 -0.196,0 -0.354,-0.159 -0.354,-0.354"
       style="fill:#231f20;fill-opacity:1;fill-rule:nonzero;stroke:none;stroke-width:0.207792"
       transform="matrix(1.7001556,0,0,-1.695338,115.94453,125.27036)"
       clip-path="url(#clipPath22)" />
    <path
       id="path23"
       d="m 0,0 c 0,-0.195 0.158,-0.353 0.353,-0.353 0.196,0 0.354,0.158 0.354,0.353 0,0.195 -0.158,0.353 -0.354,0.353 C 0.158,0.353 0,0.195 0,0"
       style="fill:#231f20;fill-opacity:1;fill-rule:nonzero;stroke:none;stroke-width:0.207792"
       transform="matrix(1.7001556,0,0,-1.695338,116.68632,125.27036)"
       clip-path="url(#clipPath24)" />
    <path
       id="path25"
       d="m 0,0 c -0.078,0 -0.142,0.064 -0.142,0.142 0,0.079 0.064,0.143 0.142,0.143 0.078,0 0.142,-0.064 0.142,-0.143 C 0.142,0.064 0.078,0 0,0 m 0,0.496 c -0.195,0 -0.354,-0.159 -0.354,-0.354 0,-0.194 0.159,-0.353 0.354,-0.353 0.195,0 0.353,0.159 0.353,0.353 0,0.195 -0.158,0.354 -0.353,0.354"
       style="fill:#231f20;fill-opacity:1;fill-rule:nonzero;stroke:none;stroke-width:0.207792"
       transform="matrix(1.7001556,0,0,-1.695338,118.87236,125.51161)"
       clip-path="url(#clipPath26)" />
    <path
       id="path27"
       d="m 0,0 c 0.003,0 0.007,-0.001 0.011,-0.001 0.068,0 0.126,0.053 0.131,0.123 0.033,0.429 0.232,0.819 0.558,1.1 0.328,0.28 0.743,0.417 1.174,0.383 C 2.431,1.563 2.921,1.234 3.176,0.749 L 3.031,0.681 C 3.016,0.673 3.007,0.659 3.004,0.643 3.003,0.625 3.011,0.609 3.025,0.6 L 3.562,0.229 3.615,0.879 C 3.616,0.895 3.609,0.913 3.595,0.921 3.581,0.931 3.563,0.933 3.548,0.925 L 3.414,0.862 C 3.119,1.432 2.547,1.819 1.894,1.869 0.859,1.948 -0.042,1.174 -0.122,0.142 -0.127,0.069 -0.073,0.005 0,0"
       style="fill:#231f20;fill-opacity:1;fill-rule:nonzero;stroke:none;stroke-width:0.207792"
       transform="matrix(1.7001556,0,0,-1.695338,114.31255,125.27782)"
       clip-path="url(#clipPath28)" />
    <path
       id="path29"
       d="m 0,0 c -0.075,0.004 -0.137,-0.049 -0.142,-0.122 -0.068,-0.887 -0.846,-1.548 -1.732,-1.483 -0.557,0.042 -1.047,0.371 -1.302,0.856 l 0.137,0.065 c 0.015,0.007 0.025,0.021 0.027,0.038 10e-4,0.016 -0.006,0.032 -0.02,0.042 l -0.531,0.366 -0.052,-0.643 c -10e-4,-0.016 0.006,-0.032 0.02,-0.041 0.014,-0.01 0.031,-0.011 0.046,-0.003 l 0.135,0.063 c 0.295,-0.57 0.867,-0.957 1.519,-1.007 0.05,-0.004 0.099,-0.005 0.148,-0.005 0.447,0 0.875,0.158 1.218,0.451 0.381,0.327 0.612,0.782 0.651,1.281 C 0.127,-0.069 0.073,-0.005 0,0"
       style="fill:#231f20;fill-opacity:1;fill-rule:nonzero;stroke:none;stroke-width:0.207792"
       transform="matrix(1.7001556,0,0,-1.695338,120.25768,125.26239)"
       clip-path="url(#clipPath30)" />
    <path
       id="path31"
       d="m 0,0 c -0.845,0 -1.534,0.687 -1.534,1.534 0,0.845 0.689,1.533 1.534,1.533 0.845,0 1.533,-0.688 1.533,-1.533 C 1.533,0.687 0.845,0 0,0 m 0,3.404 c -1.031,0 -1.87,-0.839 -1.87,-1.87 0,-1.031 0.839,-1.871 1.87,-1.871 1.031,0 1.87,0.84 1.87,1.871 0,1.031 -0.839,1.87 -1.87,1.87"
       style="fill:#231f20;fill-opacity:1;fill-rule:nonzero;stroke:none;stroke-width:0.207792"
       transform="matrix(1.7001556,0,0,-1.695338,117.28714,155.75575)"
       clip-path="url(#clipPath32)" />
    <path
       id="path33"
       d="M 0,0 -0.038,-0.987 -0.625,-1.011 V -1.283 L 0.294,-1.319 0.241,0 Z"
       style="fill:#231f20;fill-opacity:1;fill-rule:nonzero;stroke:none;stroke-width:0.207792"
       transform="matrix(1.7001556,0,0,-1.695338,117.04964,151.22802)"
       clip-path="url(#clipPath34)" />
    <path
       id="path37"
       d="m 0,0 c -1.589,0 -3.178,0.316 -4.646,0.924 -1.469,0.609 -2.816,1.506 -3.94,2.627 -1.124,1.121 -2.024,2.462 -2.635,3.927 -0.61,1.463 -0.93,3.051 -0.93,4.64 10e-4,1.59 0.32,3.177 0.93,4.64 0.612,1.463 1.512,2.805 2.635,3.926 1.124,1.12 2.471,2.02 3.939,2.628 1.469,0.608 3.058,0.924 4.647,0.924 1.589,0 3.177,-0.316 4.646,-0.924 1.469,-0.608 2.816,-1.508 3.938,-2.628 1.125,-1.121 2.025,-2.462 2.637,-3.926 0.61,-1.463 0.929,-3.052 0.93,-4.641 0,-1.589 -0.32,-3.176 -0.929,-4.64 C 10.612,6.012 9.713,4.669 8.588,3.549 7.464,2.427 6.116,1.528 4.647,0.922 3.177,0.315 1.589,0 0,0 Z"
       style="fill:none;stroke:#231f20;stroke-width:0.0627532;stroke-linecap:round;stroke-linejoin:round;stroke-miterlimit:4;stroke-dasharray:none;stroke-opacity:1"
       transform="matrix(1.7001556,0,0,-1.695338,117.28478,159.75522)"
       clip-path="url(#clipPath38)" />
    <path
       id="path39"
       d="M 0,0 C 0.355,-0.049 0.72,-0.026 1.067,0.067 1.414,0.16 1.743,0.322 2.026,0.543 2.31,0.764 2.549,1.042 2.724,1.355 2.899,1.669 3.011,2.019 3.049,2.376 3.06,2.473 3.065,2.571 3.065,2.668 3.064,4.158 1.858,5.371 0.367,5.371 c -1.49,0 -2.701,-1.211 -2.7,-2.701 0,-0.797 0.35,-1.463 0.783,-1.897 C -1.117,0.338 -0.585,0.08 0,0 Z"
       style="fill:none;stroke:#231f20;stroke-width:0.0627532;stroke-linecap:round;stroke-linejoin:round;stroke-miterlimit:4;stroke-dasharray:none;stroke-opacity:1"
       transform="matrix(1.7001556,0,0,-1.695338,105.19836,110.75893)"
       clip-path="url(#clipPath40)" />
    <path
       id="path41"
       d="M 0,0 C 0.669,0.09 1.301,0.44 1.73,0.962 2.16,1.482 2.382,2.171 2.339,2.848 2.295,3.523 1.983,4.18 1.489,4.643 0.994,5.106 0.319,5.372 -0.357,5.372 -0.733,5.372 -1.109,5.292 -1.454,5.139 -1.797,4.985 -2.109,4.759 -2.361,4.478 -2.613,4.198 -2.806,3.865 -2.922,3.505 -3.04,3.145 -3.08,2.761 -3.041,2.387 -3.006,2.056 -2.91,1.737 -2.76,1.444 c 0.15,-0.293 0.361,-0.565 0.6,-0.779 0.478,-0.431 1.138,-0.688 1.802,-0.688 0.12,0 0.24,0.007 0.358,0.023 z"
       style="fill:none;stroke:#231f20;stroke-width:0.0627532;stroke-linecap:round;stroke-linejoin:round;stroke-miterlimit:4;stroke-dasharray:none;stroke-opacity:1"
       transform="matrix(1.7001556,0,0,-1.695338,129.35251,110.76128)"
       clip-path="url(#clipPath42)" />
    <path
       id="path43"
       d="M 0,0 C 0,2.562 -2.077,4.639 -4.637,4.639 -7.2,4.639 -9.276,2.562 -9.276,0 c 0,-2.562 2.076,-4.639 4.639,-4.639 C -2.077,-4.639 0,-2.562 0,0 Z"
       style="fill:none;stroke:#231f20;stroke-width:0.0627532;stroke-linecap:round;stroke-linejoin:round;stroke-miterlimit:4;stroke-dasharray:none;stroke-opacity:1"
       transform="matrix(1.7001556,0,0,-1.695338,125.17076,139.21112)"
       clip-path="url(#clipPath44)" />
    <path
       id="path45"
       d="M 0,0 C 0.084,0 0.152,0.068 0.152,0.152 V 1.937 C 0.152,2.021 0.084,2.089 0,2.089 -0.084,2.089 -0.152,2.021 -0.152,1.937 V 0.152 C -0.152,0.068 -0.084,0 0,0"
       style="fill:#231f20;fill-opacity:1;fill-rule:nonzero;stroke:none;stroke-width:0.207792"
       transform="matrix(1.7001556,0,0,-1.695338,128.7479,106.91592)"
       clip-path="url(#clipPath46)" />
    <path
       id="path47"
       d="m 0,0 c -0.023,0.015 -0.049,0.023 -0.077,0.023 -0.046,0 -0.09,-0.023 -0.115,-0.061 -0.02,-0.03 -0.028,-0.068 -0.02,-0.104 0.007,-0.036 0.027,-0.067 0.058,-0.088 0.343,-0.229 0.547,-0.611 0.547,-1.023 0,-0.679 -0.552,-1.231 -1.231,-1.231 -0.678,0 -1.23,0.552 -1.23,1.231 0,0.412 0.204,0.794 0.547,1.023 0.03,0.021 0.051,0.052 0.059,0.088 0.006,0.036 -0.001,0.074 -0.022,0.105 -0.025,0.037 -0.068,0.06 -0.114,0.06 -0.028,0 -0.054,-0.008 -0.078,-0.023 -0.418,-0.281 -0.668,-0.749 -0.668,-1.253 0,-0.83 0.676,-1.506 1.506,-1.506 0.832,0 1.507,0.676 1.507,1.506 C 0.669,-0.749 0.419,-0.281 0,0"
       style="fill:#231f20;fill-opacity:1;fill-rule:nonzero;stroke:none;stroke-width:0.207792"
       transform="matrix(1.7001556,0,0,-1.695338,130.1718,104.40293)"
       clip-path="url(#clipPath48)" />
    <path
       id="path49"
       d="M 0,0 H -0.004 C -0.01,0.002 -0.014,0.006 -0.015,0.012 L -0.232,0.814 0.571,0.601 C 0.576,0.599 0.581,0.594 0.583,0.589 0.584,0.584 0.583,0.577 0.578,0.574 L 0.011,0.004 C 0.009,0.001 0.004,0 0,0"
       style="fill:#231f20;fill-opacity:1;fill-rule:nonzero;stroke:none;stroke-width:0.207792"
       transform="matrix(1.7001556,0,0,-1.695338,103.35234,107.10464)"
       clip-path="url(#clipPath50)" />
    <path
       id="path51"
       d="m 0,0 c -0.004,0 -0.009,0.001 -0.011,0.004 l -0.571,0.567 c -0.003,0.004 -0.005,0.01 -0.004,0.015 0.002,0.006 0.006,0.01 0.012,0.012 L 0.227,0.815 0.015,0.012 C 0.014,0.006 0.01,0.002 0.004,0 Z"
       style="fill:#231f20;fill-opacity:1;fill-rule:nonzero;stroke:none;stroke-width:0.207792"
       transform="matrix(1.7001556,0,0,-1.695338,108.29521,107.09225)"
       clip-path="url(#clipPath52)" />
    <path
       id="path53"
       d="m 0,0 c -0.301,-0.001 -0.597,0.078 -0.855,0.226 -0.237,0.137 -0.439,0.329 -0.587,0.557 l 0.185,0.112 c 0.278,-0.428 0.745,-0.68 1.256,-0.679 0.536,0.002 1.026,0.287 1.292,0.749 L 1.481,0.862 C 1.178,0.331 0.615,0.001 0,0"
       style="fill:#231f20;fill-opacity:1;fill-rule:nonzero;stroke:none;stroke-width:0.207792"
       transform="matrix(1.7001556,0,0,-1.695338,105.82997,107.6178)"
       clip-path="url(#clipPath54)" />
    <path
       id="path55"
       d="M 0,0 C 0.145,-0.222 0.345,-0.41 0.575,-0.542 0.83,-0.69 1.123,-0.766 1.419,-0.766 h 0.005 c 0.602,0.001 1.162,0.324 1.464,0.844 L 2.72,0.169 C 2.451,-0.29 1.955,-0.575 1.424,-0.576 H 1.419 c -0.508,0 -0.976,0.252 -1.256,0.675 z m 1.419,-0.792 c -0.3,0 -0.597,0.079 -0.857,0.228 -0.238,0.137 -0.441,0.331 -0.591,0.561 l -0.006,0.012 0.206,0.124 0.006,-0.01 c 0.276,-0.422 0.74,-0.674 1.242,-0.674 H 1.424 C 1.95,-0.55 2.441,-0.265 2.703,0.191 L 2.71,0.202 2.923,0.089 2.917,0.077 C 2.612,-0.458 2.04,-0.791 1.424,-0.792 Z"
       style="fill:#231f20;fill-opacity:1;fill-rule:nonzero;stroke:none;stroke-width:0.207792"
       transform="matrix(1.7001556,0,0,-1.695338,103.40913,106.29662)"
       clip-path="url(#clipPath56)" />
    <path
       id="path59"
       d="m 0,0 h -0.469 -0.469 v 0.477 c 0,0.259 0.211,0.47 0.469,0.47 C -0.21,0.947 0,0.736 0,0.477 Z m 0.355,0.477 c 0,0.456 -0.37,0.825 -0.824,0.825 -0.454,0 -0.824,-0.369 -0.824,-0.825 V 0 h -0.36 v -1.425 c 0,-0.353 0.286,-0.639 0.638,-0.639 h 0.546 0.546 c 0.352,0 0.639,0.286 0.639,0.639 V 0 H 0.355 Z"
       style="fill:#231f20;fill-opacity:1;fill-rule:evenodd;stroke:none;stroke-width:0.207792"
       transform="matrix(1.7001556,0,0,-1.695338,118.08233,138.56538)"
       clip-path="url(#clipPath60)" />
    <path
       id="path61"
       d="M 0,0 H -1.178 V 1.178 H -1.7 V 0 H -2.878 V -0.522 H -1.7 V -1.7 h 0.522 v 1.178 H 0 Z"
       style="fill:#231f20;fill-opacity:1;fill-rule:nonzero;stroke:none;stroke-width:0.207792"
       transform="matrix(1.7001556,0,0,-1.695338,134.26475,138.76895)"
       clip-path="url(#clipPath62)" />
    <path
       id="path63"
       d="m 299.519,388.261 h 3.103 v 0.577 h -3.103 z"
       style="fill:#231f20;fill-opacity:1;fill-rule:nonzero;stroke:none;stroke-width:0.207792"
       transform="matrix(1.7001556,0,0,-1.695338,-409.11421,797.93403)"
       clip-path="url(#clipPath64)" />
  </g>
</svg>
